<?xml version="1.0" standalone="no"?>
<!DOCTYPE svg PUBLIC "-//W3C//DTD SVG 20010904//EN"
 "http://www.w3.org/TR/2001/REC-SVG-20010904/DTD/svg10.dtd">
<svg version="1.0" xmlns="http://www.w3.org/2000/svg"
 width="16.000000pt" height="16.000000pt" viewBox="0 0 16.000000 16.000000"
 preserveAspectRatio="xMidYMid meet">
<metadata>
Created by potrace 1.11, written by Peter Selinger 2001-2013
</metadata>
<g transform="translate(0.000000,16.000000) scale(0.002286,-0.002286)"
fill="#000000" stroke="none">
<path d="M545 6985 c-173 -37 -328 -142 -424 -285 -42 -63 -60 -98 -93 -190
l-23 -65 -2 -2910 c-1 -1830 2 -2931 8 -2968 21 -130 99 -276 197 -371 88 -85
168 -132 297 -172 58 -18 148 -19 2975 -19 1603 0 2933 3 2955 7 200 32 386
168 485 353 18 33 43 101 56 150 l23 90 -2 2920 -2 2920 -21 61 c-12 34 -35
90 -53 125 -88 180 -285 325 -487 358 -38 6 -1107 10 -2944 10 -2339 -1 -2896
-3 -2945 -14z m4755 -959 c1 -45 1 -677 1 -766 l-1 -95 -637 0 c-351 1 -642 0
-648 -2 -7 -2 -10 -710 -9 -2101 0 -1153 -1 -2102 -3 -2108 -3 -7 -156 -10
-503 -10 -448 0 -500 1 -501 15 0 9 -1 959 -1 2111 l-1 2095 -631 0 c-347 -1
-638 1 -648 3 -15 3 -16 42 -16 441 l0 437 1799 0 1799 0 0 -20z"/>
</g>
</svg>
